
<svg xmlns="http://www.w3.org/2000/svg" width="16" height="16"><path fill-rule="evenodd" d="m3.333 2.626.354.354L8 7.293l4.313-4.313.354-.354.707.707-.354.354L8.707 8l4.313 4.313.354.354-.707.707-.354-.354L8 8.707 3.687 13.02l-.354.354-.707-.707.354-.354L7.293 8 2.98 3.687l-.354-.354z" clip-rule="evenodd"/>
<path xmlns="http://www.w3.org/2000/svg" fill-rule="evenodd" d="m3.333 2.626.354.354L8 7.293l4.313-4.313.354-.354.707.707-.354.354L8.707 8l4.313 4.313.354.354-.707.707-.354-.354L8 8.707 3.687 13.02l-.354.354-.707-.707.354-.354L7.293 8 2.98 3.687l-.354-.354z" clip-rule="evenodd"/>

</svg>
